<svg xmlns="http://www.w3.org/2000/svg" width="256" height="36" viewBox="0 0 256 36">
    <defs>
        <clipPath id="nabrd6arla">
            <path data-name="사각형 447" style="fill:none" d="M0 0h256v36H0z"/>
        </clipPath>
    </defs>
    <g data-name="그룹 118" style="clip-path:url(#nabrd6arla)">
        <path data-name="패스 1" d="M301.832 16.879a1.722 1.722 0 0 1-1.753-1.8V3.7h11.383v2.667h-8.125v7.395a.345.345 0 0 0 .1.266.3.3 0 0 0 .213.1h7.81v2.754zm14.953 8.774V9.742h-1.012v15.573h-3.253V3.7h3.253v3.29h1.012V3.7h3.28v21.954z" transform="translate(-197.552 -2.431)" style="fill:#002c78"/>
        <path data-name="패스 2" d="M377.021 4.412a6.239 6.239 0 0 1 .832 1.562 5.072 5.072 0 0 1 .268 1.676v.167a6.132 6.132 0 0 1-.481 2.251 5.32 5.32 0 0 1-1.223 1.757 5.538 5.538 0 0 1-1.89 1.151 6.9 6.9 0 0 1-2.422.407 6.693 6.693 0 0 1-2.413-.421 6.1 6.1 0 0 1-1.931-1.153 5.031 5.031 0 0 1-1.28-1.757A5.582 5.582 0 0 1 366 7.816v-.167a5.316 5.316 0 0 1 .267-1.69 5 5 0 0 1 .853-1.548h-2.2V1.687h5.548V0h3.258v1.687h5.522v2.725zm-8.868 18.306a1.763 1.763 0 0 1-1.212-.453 1.677 1.677 0 0 1-.519-1.344V14.93h3.235v4.694c0 .226.083.337.246.337h14.5v2.758zm6.769-16.209a2.889 2.889 0 0 0-.651-.987 2.921 2.921 0 0 0-.975-.629 3.239 3.239 0 0 0-2.382 0 2.991 2.991 0 0 0-.977.618 2.746 2.746 0 0 0-.65.971 3.347 3.347 0 0 0-.237 1.277 3.219 3.219 0 0 0 .833 2.278 2.872 2.872 0 0 0 2.223.9 2.824 2.824 0 0 0 2.2-.886 3.367 3.367 0 0 0 .855-2.234 3.45 3.45 0 0 0-.238-1.307m9.216-2.6c-.179 0-.27.107-.27.312v12.4h-3.277V3.235a2.161 2.161 0 0 1 .549-1.508 1.948 1.948 0 0 1 1.516-.6h3.367v2.779z" transform="translate(-240.238)" style="fill:#002c78"/>
        <path data-name="패스 3" d="M430.663 17.442a1.671 1.671 0 0 1-1.256-.5 1.809 1.809 0 0 1-.5-1.32V3.695h11.383v2.671h-8.129v2.81h7.792V11.9h-7.792v2.42a.39.39 0 0 0 .1.237c.07.086.134.128.191.128h7.836v2.754zm11.97 7.872V6.73a.368.368 0 0 0-.114-.253.363.363 0 0 0-.247-.111h-1.61V3.695h3.45a1.67 1.67 0 0 1 1.773 1.743v19.876zm3.858-21.619h3.277v21.958h-3.277z" transform="translate(-282.367 -2.43)" style="fill:#002c78"/>
        <path data-name="패스 4" d="M501.2 16.318a1.735 1.735 0 0 1-1.222-.476 1.782 1.782 0 0 1-.5-1.353V3.695h3.222v9.5a.378.378 0 0 0 .114.3.32.32 0 0 0 .2.1h11.024v2.725zm13.876-12.623h3.256v21.958h-3.256z" transform="translate(-328.819 -2.43)" style="fill:#002c78"/>
        <path data-name="패스 5" d="M560.44 20.223h20.408v2.7H560.44zm19.554-4.3a2.727 2.727 0 0 1-.38.027h-.384a8.368 8.368 0 0 1-5.309-1.842 9.132 9.132 0 0 1-1.941-2.138 10.179 10.179 0 0 1-1.283-2.8 10.6 10.6 0 0 1-1.29 2.83A8.561 8.561 0 0 1 565 15.474a8.815 8.815 0 0 1-2.9.476h-.472a3.489 3.489 0 0 1-.426-.027V13a6.586 6.586 0 0 0 5.278-2.5 8.638 8.638 0 0 0 1.461-2.827 12.136 12.136 0 0 0 .517-3.641v-.258h4.489a13.33 13.33 0 0 0 .605 3.64A10.212 10.212 0 0 0 575 10.367a7.2 7.2 0 0 0 2.137 1.983 5.127 5.127 0 0 0 2.683.73h.287v2.729z" transform="translate(-368.957 -2.482)" style="fill:#002c78"/>
        <path data-name="패스 6" d="M636.465 4.411a4.544 4.544 0 0 1 .6 1.2A4.715 4.715 0 0 1 637.25 7v.227a5.77 5.77 0 0 1-.494 2.231 5.1 5.1 0 0 1-1.222 1.7 5.408 5.408 0 0 1-1.83 1.081 6.76 6.76 0 0 1-2.312.376 6.851 6.851 0 0 1-2.368-.388 5.494 5.494 0 0 1-1.819-1.083 5.1 5.1 0 0 1-1.193-1.644 5.234 5.234 0 0 1-.458-2.108V7.2a4.82 4.82 0 0 1 .809-2.785h-2.134V1.686h5.523V0h3.277v1.686h5.5v2.725zm7.835 17.843a1.782 1.782 0 0 1-1.262.464h-14.723a1.768 1.768 0 0 1-1.3-.494 1.738 1.738 0 0 1-.5-1.3v-7.036h3.28v1.659h11.765v-1.659h3.24v7.033a1.767 1.767 0 0 1-.491 1.333M633.29 5.23a2.478 2.478 0 0 0-1.9-.76h-.09a2.341 2.341 0 0 0-1.874.8 2.918 2.918 0 0 0-.686 1.957v.167a3.14 3.14 0 0 0 .215 1.023 2.522 2.522 0 0 0 .538.861 2.636 2.636 0 0 0 .832.59 2.5 2.5 0 0 0 1.065.226 2.375 2.375 0 0 0 1.909-.815 3.047 3.047 0 0 0 .7-2.051 2.827 2.827 0 0 0-.706-2m8.273 13.1H629.8v1.293c0 .226.09.337.27.337h11.224a.275.275 0 0 0 .191-.067.354.354 0 0 0 .08-.269zm0-4.662v-4.98c0-.148-.028-.241-.08-.28a.312.312 0 0 0-.191-.054h-2.38V5.566h2.651V4.217c0-.205-.093-.312-.271-.312h-2.38V1.124h4.13a1.662 1.662 0 0 1 1.269.506 1.756 1.756 0 0 1 .484 1.264v10.774z" transform="translate(-410.951)" style="fill:#002c78"/>
        <path data-name="패스 7" d="M706.4 23.306V17.6h-17.337v-2.78h7.142v-2.31a5.757 5.757 0 0 1-3.433-1.913 5.467 5.467 0 0 1-1.262-3.486v-.2a5.535 5.535 0 0 1 .169-1.32 3.083 3.083 0 0 1 .575-1.182H689.8V1.687h6.448V0h3.278v1.687h5.974v2.725h-2.133a3.119 3.119 0 0 1 .574 1.169 5.46 5.46 0 0 1 .165 1.333v.2a5.3 5.3 0 0 1-1.143 3.291h.021a5.355 5.355 0 0 1-3.5 2.107v2.308h6.916V1.124h3.235v22.182zm-6.366-18.035a2.8 2.8 0 0 0-2.1-.772h-.224a2.879 2.879 0 0 0-2.109.772 2.674 2.674 0 0 0-.833 1.841V7.2a2.756 2.756 0 0 0 .854 2.082 3.052 3.052 0 0 0 2.2.815 2.772 2.772 0 0 0 2.964-2.866 2.7 2.7 0 0 0-.752-1.957" transform="translate(-453.634)" style="fill:#002c78"/>
        <path data-name="패스 8" d="M307.366 88.734h-1.5L303.5 84.57l-1.418 1.709v2.455h-1.293v-8.443h1.293v4.243l3.447-4.243h1.56l-2.738 3.309z" transform="translate(-198.018 -52.801)" style="fill:#464749"/>
        <path data-name="패스 9" d="M328.42 84.377c0 .671-.014 1.178-.037 1.535a3.507 3.507 0 0 1-.214.989 2.438 2.438 0 0 1-.555.866 3.037 3.037 0 0 1-2.226.9 3 3 0 0 1-2.212-.892 2.619 2.619 0 0 1-.569-.862 3.515 3.515 0 0 1-.211-1 20.525 20.525 0 0 1-.042-1.535c0-.512.007-.921.023-1.223a6.1 6.1 0 0 1 .089-.829 2.872 2.872 0 0 1 .237-.707 2.69 2.69 0 0 1 .473-.637 3.014 3.014 0 0 1 2.216-.895 3.06 3.06 0 0 1 2.224.895 2.688 2.688 0 0 1 .561.863 3.757 3.757 0 0 1 .206 1c.023.353.037.865.037 1.529m-1.283.007a11.119 11.119 0 0 0-.1-1.771 1.69 1.69 0 0 0-.4-.842 1.5 1.5 0 0 0-.555-.376 1.742 1.742 0 0 0-1.4 0 1.435 1.435 0 0 0-.555.376 1.72 1.72 0 0 0-.406.849 11.528 11.528 0 0 0-.092 1.764c0 .441.006.8.019 1.066a5.136 5.136 0 0 0 .078.7 1.817 1.817 0 0 0 .139.464 1.6 1.6 0 0 0 .262.372 1.671 1.671 0 0 0 .559.391 1.907 1.907 0 0 0 .7.135 1.613 1.613 0 0 0 1.248-.527 1.457 1.457 0 0 0 .316-.5 3.023 3.023 0 0 0 .143-.789c.026-.328.037-.769.037-1.313" transform="translate(-212.217 -52.671)" style="fill:#464749"/>
        <path data-name="패스 10" d="M351.409 88.734h-1.494l-1.772-3.556h-1.592v3.556h-1.294v-8.443h3.277a2.924 2.924 0 0 1 1.374.316 2.251 2.251 0 0 1 .92.875 2.5 2.5 0 0 1 .321 1.274 2.23 2.23 0 0 1-.467 1.45 2.354 2.354 0 0 1-1.214.8zm-1.542-5.96a1.257 1.257 0 0 0-.387-.97 1.479 1.479 0 0 0-1.044-.354h-1.886v2.627h1.886a1.487 1.487 0 0 0 1.04-.352 1.2 1.2 0 0 0 .391-.951" transform="translate(-227.294 -52.801)" style="fill:#464749"/>
        <path data-name="패스 11" d="M372.988 88.734h-5.4v-8.443h5.4v1.159h-4.111v2.45h3.5v1.145h-3.5v2.529h4.111z" transform="translate(-241.994 -52.801)" style="fill:#464749"/>
        <path data-name="패스 12" d="M392.419 88.733h-1.361l-.576-1.7h-3.328l-.577 1.7h-1.365l3.09-8.443h1.032zm-2.3-2.789-1.272-3.744-1.309 3.741z" transform="translate(-253.598 -52.8)" style="fill:#464749"/>
        <path data-name="패스 13" d="M421.162 81.449h-2.324v7.284h-1.281v-7.284h-2.318V80.29h5.924z" transform="translate(-273.365 -52.8)" style="fill:#464749"/>
        <path data-name="패스 14" d="M441.834 88.734h-5.4v-8.443h5.4v1.159h-4.106v2.45h3.5v1.145h-3.5v2.529h4.106z" transform="translate(-287.318 -52.801)" style="fill:#464749"/>
        <path data-name="패스 15" d="M463.325 88.734h-1.18l-3.883-5.934v5.937h-1.294v-8.446h1.184l3.893 5.928v-5.928h1.281z" transform="translate(-300.838 -52.801)" style="fill:#464749"/>
        <path data-name="패스 16" d="M487.984 88.734H486.8l-3.877-5.934v5.937h-1.3v-8.446h1.186l3.887 5.928v-5.928h1.285z" transform="translate(-317.07 -52.801)" style="fill:#464749"/>
        <path data-name="사각형 444" transform="translate(172.981 27.49)" style="fill:#464749" d="M0 0h1.296v8.443H0z"/>
        <path data-name="패스 17" d="M519.977 86.193a2.365 2.365 0 0 1-.216 1.026 2.251 2.251 0 0 1-.635.8 2.96 2.96 0 0 1-.966.493 4.227 4.227 0 0 1-1.214.159 4.851 4.851 0 0 1-1.676-.257 3.555 3.555 0 0 1-1.313-.865l.856-.847a2.66 2.66 0 0 0 .623.48 2.61 2.61 0 0 0 .715.257 4.234 4.234 0 0 0 .818.077 2.127 2.127 0 0 0 1.274-.341 1.252 1.252 0 0 0 .129-1.826.969.969 0 0 0-.35-.223 2.435 2.435 0 0 0-.567-.134l-1-.138a2.9 2.9 0 0 1-1.6-.673 2.107 2.107 0 0 1-.612-1.61 2.484 2.484 0 0 1 .342-1.3 2.25 2.25 0 0 1 .978-.868 3.386 3.386 0 0 1 1.5-.31 4.2 4.2 0 0 1 1.469.232 3.31 3.31 0 0 1 1.148.733l-.822.81a1.991 1.991 0 0 0-.54-.385 2.306 2.306 0 0 0-.6-.2 3.267 3.267 0 0 0-.689-.061 1.816 1.816 0 0 0-.822.168 1.183 1.183 0 0 0-.529.46 1.259 1.259 0 0 0-.181.679 1 1 0 0 0 .317.786 1.534 1.534 0 0 0 .411.236 1.932 1.932 0 0 0 .534.147l.958.143a4.38 4.38 0 0 1 .946.237 2.075 2.075 0 0 1 .625.389 2.169 2.169 0 0 1 .689 1.729" transform="translate(-338.357 -52.671)" style="fill:#464749"/>
        <path data-name="패스 18" d="M548.473 88.733h-1.361l-.578-1.7h-3.328l-.577 1.7h-1.367l3.093-8.443h1.028zm-2.3-2.789L544.9 82.2l-1.311 3.741z" transform="translate(-356.331 -52.8)" style="fill:#464749"/>
        <path data-name="패스 19" d="M569.333 86.193a2.385 2.385 0 0 1-.218 1.026 2.326 2.326 0 0 1-.637.8 3.007 3.007 0 0 1-.963.493 4.265 4.265 0 0 1-1.216.159 4.848 4.848 0 0 1-1.676-.257 3.5 3.5 0 0 1-1.311-.865l.856-.847a2.63 2.63 0 0 0 .62.48 2.539 2.539 0 0 0 .72.257 4.163 4.163 0 0 0 .815.077 2.135 2.135 0 0 0 1.275-.341 1.251 1.251 0 0 0 .127-1.826.947.947 0 0 0-.349-.223 2.412 2.412 0 0 0-.567-.134l-.995-.138a2.9 2.9 0 0 1-1.6-.673 2.1 2.1 0 0 1-.611-1.61 2.453 2.453 0 0 1 .34-1.3 2.258 2.258 0 0 1 .979-.868 3.4 3.4 0 0 1 1.5-.31 4.222 4.222 0 0 1 1.469.232 3.327 3.327 0 0 1 1.15.733l-.825.81a1.99 1.99 0 0 0-.541-.385 2.285 2.285 0 0 0-.6-.2 3.31 3.31 0 0 0-.689-.061 1.807 1.807 0 0 0-.826.168 1.191 1.191 0 0 0-.53.46 1.3 1.3 0 0 0-.18.679.993.993 0 0 0 .32.786 1.5 1.5 0 0 0 .4.236 2.009 2.009 0 0 0 .536.147l.964.143a4.367 4.367 0 0 1 .941.237 2.108 2.108 0 0 1 .629.389 2.174 2.174 0 0 1 .691 1.729" transform="translate(-370.848 -52.671)" style="fill:#464749"/>
        <path data-name="패스 20" d="M589.41 86.193a2.363 2.363 0 0 1-.222 1.026 2.226 2.226 0 0 1-.633.8 3 3 0 0 1-.963.493 4.266 4.266 0 0 1-1.213.159 4.89 4.89 0 0 1-1.68-.257 3.521 3.521 0 0 1-1.31-.865l.857-.847a2.564 2.564 0 0 0 .623.48 2.512 2.512 0 0 0 .717.257 4.147 4.147 0 0 0 .813.077 2.135 2.135 0 0 0 1.276-.341 1.258 1.258 0 0 0 .127-1.826.952.952 0 0 0-.349-.223 2.543 2.543 0 0 0-.568-.134l-1-.138a2.884 2.884 0 0 1-1.6-.673 2.094 2.094 0 0 1-.617-1.61 2.425 2.425 0 0 1 .346-1.3A2.233 2.233 0 0 1 585 80.4a3.39 3.39 0 0 1 1.5-.31 4.2 4.2 0 0 1 1.47.232 3.313 3.313 0 0 1 1.15.733l-.824.81a2.045 2.045 0 0 0-.543-.385 2.292 2.292 0 0 0-.6-.2 3.259 3.259 0 0 0-.687-.061 1.831 1.831 0 0 0-.825.168 1.186 1.186 0 0 0-.528.46 1.29 1.29 0 0 0-.182.679 1.01 1.01 0 0 0 .318.786 1.514 1.514 0 0 0 .414.236 1.919 1.919 0 0 0 .53.147l.961.143a4.392 4.392 0 0 1 .944.237 2.021 2.021 0 0 1 .625.389 2.176 2.176 0 0 1 .694 1.729" transform="translate(-384.065 -52.671)" style="fill:#464749"/>
        <path data-name="패스 21" d="M610.82 84.377c0 .671-.011 1.178-.036 1.535a3.59 3.59 0 0 1-.211.989 2.431 2.431 0 0 1-.559.866 3.188 3.188 0 0 1-4.437.013 2.627 2.627 0 0 1-.567-.862 3.705 3.705 0 0 1-.217-1 22.57 22.57 0 0 1-.035-1.535c0-.512.006-.921.017-1.223a6.594 6.594 0 0 1 .093-.829 2.96 2.96 0 0 1 .238-.707 2.743 2.743 0 0 1 .472-.637 3.021 3.021 0 0 1 2.212-.895 3.071 3.071 0 0 1 2.23.895 2.535 2.535 0 0 1 .556.863 3.54 3.54 0 0 1 .208 1c.025.353.036.865.036 1.529m-1.281.007a10.916 10.916 0 0 0-.1-1.771 1.638 1.638 0 0 0-.4-.842 1.5 1.5 0 0 0-.556-.376 1.745 1.745 0 0 0-1.4 0 1.486 1.486 0 0 0-.559.376 1.683 1.683 0 0 0-.4.849 10.9 10.9 0 0 0-.1 1.764c0 .441.008.8.021 1.066a4.507 4.507 0 0 0 .078.7 1.965 1.965 0 0 0 .139.464 1.526 1.526 0 0 0 .256.372 1.752 1.752 0 0 0 .564.391 1.892 1.892 0 0 0 .693.135 1.617 1.617 0 0 0 1.254-.527 1.407 1.407 0 0 0 .316-.5 3.084 3.084 0 0 0 .143-.789c.024-.328.037-.769.037-1.313" transform="translate(-398.133 -52.671)" style="fill:#464749"/>
        <path data-name="패스 22" d="M632.166 87.663a4.061 4.061 0 0 1-.658.545 2.8 2.8 0 0 1-.766.346 3.33 3.33 0 0 1-.933.117 3.386 3.386 0 0 1-.828-.1 2.946 2.946 0 0 1-.75-.314 3.073 3.073 0 0 1-.634-.481 2.628 2.628 0 0 1-.569-.863 3.7 3.7 0 0 1-.214-1 20.858 20.858 0 0 1-.039-1.535c0-.512 0-.921.02-1.223a5.978 5.978 0 0 1 .092-.829 2.848 2.848 0 0 1 .238-.707 2.526 2.526 0 0 1 .472-.637 3.086 3.086 0 0 1 1-.669 3.249 3.249 0 0 1 1.21-.226 3.11 3.11 0 0 1 1.3.25 3.612 3.612 0 0 1 1.053.752l-.849.867a3.124 3.124 0 0 0-.7-.548 1.8 1.8 0 0 0-.8-.166 1.76 1.76 0 0 0-.7.138 1.423 1.423 0 0 0-.55.373 1.6 1.6 0 0 0-.256.361 2.141 2.141 0 0 0-.144.48 5.572 5.572 0 0 0-.078.7c-.013.272-.018.627-.018 1.08a10.848 10.848 0 0 0 .1 1.774 1.524 1.524 0 0 0 .95 1.223 1.813 1.813 0 0 0 .7.135 1.689 1.689 0 0 0 .8-.171 2.912 2.912 0 0 0 .7-.544z" transform="translate(-412.628 -52.671)" style="fill:#464749"/>
        <path data-name="사각형 445" transform="translate(221.125 27.49)" style="fill:#464749" d="M0 0h1.292v8.443H0z"/>
        <path data-name="패스 23" d="M661.327 88.733h-1.365l-.579-1.7h-3.323l-.584 1.7h-1.36l3.088-8.443h1.027zm-2.3-2.789-1.276-3.744-1.312 3.741z" transform="translate(-430.627 -52.8)" style="fill:#464749"/>
        <path data-name="패스 24" d="M682.1 81.449h-2.324v7.284h-1.285v-7.284h-2.313V80.29h5.922z" transform="translate(-445.148 -52.8)" style="fill:#464749"/>
        <path data-name="사각형 446" transform="translate(238.264 27.49)" style="fill:#464749" d="M0 0h1.295v8.443H0z"/>
        <path data-name="패스 25" d="M712.383 84.377c0 .671-.013 1.178-.038 1.535a3.413 3.413 0 0 1-.214.989 2.417 2.417 0 0 1-.552.866 3.192 3.192 0 0 1-4.44.013 2.605 2.605 0 0 1-.565-.862 3.413 3.413 0 0 1-.214-1c-.03-.355-.043-.871-.043-1.535 0-.512.009-.921.019-1.223a5.944 5.944 0 0 1 .1-.829 2.808 2.808 0 0 1 .234-.707 2.75 2.75 0 0 1 .472-.637 3.024 3.024 0 0 1 2.215-.895 3.057 3.057 0 0 1 2.225.895 2.54 2.54 0 0 1 .56.863 3.638 3.638 0 0 1 .206 1c.025.353.038.865.038 1.529m-1.282.007a10.847 10.847 0 0 0-.1-1.771 1.589 1.589 0 0 0-.4-.842 1.461 1.461 0 0 0-.552-.376 1.8 1.8 0 0 0-.7-.146 1.775 1.775 0 0 0-.7.146 1.494 1.494 0 0 0-.558.376 1.684 1.684 0 0 0-.4.849 10.668 10.668 0 0 0-.1 1.764c0 .441.006.8.019 1.066a4.762 4.762 0 0 0 .076.7 1.962 1.962 0 0 0 .139.464 1.543 1.543 0 0 0 .259.372 1.693 1.693 0 0 0 .564.391 1.879 1.879 0 0 0 .694.135 1.615 1.615 0 0 0 1.249-.527 1.407 1.407 0 0 0 .316-.5 3.266 3.266 0 0 0 .146-.789c.024-.328.037-.769.037-1.313" transform="translate(-464.992 -52.671)" style="fill:#464749"/>
        <path data-name="패스 26" d="M735.581 88.734H734.4l-3.88-5.934v5.937h-1.294v-8.446h1.181l3.888 5.928v-5.928h1.285z" transform="translate(-480.075 -52.801)" style="fill:#464749"/>
        <path data-name="패스 27" d="m57.656 14.78-.234 1.927-.522 4.368a80.817 80.817 0 0 1 13.124-3.892l.141-1.168.149-1.236 8.789.361 1.344-10.873H37.814l-5.474 8.7-1.189 1.915a31.457 31.457 0 0 0-2.171 4.4l-.31-.1c.466-2.124.879-4.351 1.086-6.006l1.084-8.909h-4.319c-2.094 4.725-5.1 12.568-5.1 17.906a10.251 10.251 0 0 0 1.049 4.907 7.174 7.174 0 0 0 5.189 3.262l.059-.467.127-1.012a37.507 37.507 0 0 0 .26-3.986v-1.038l.363-.053a23.242 23.242 0 0 0 1.7 5.076l.367.815.388.866a54.265 54.265 0 0 0 11.1-2.926l-1.537-2.976-1.482-2.872L49.3 8.305l-.846 6.835z" transform="translate(-14.101 -2.806)" style="fill:#d90018"/>
        <path data-name="패스 28" d="M212.624 3.367H198.31l-2.7 5.93-3.117 6.838a22.743 22.743 0 0 1 10.263 3.339v-.004c.271-.757.491-1.4.681-2.009a31.525 31.525 0 0 0 .819-3.222h.411a24.611 24.611 0 0 0-.1 2.747c0 .98 0 1.911.053 2.484l.057.629.055.625c6.634 4.656 10.6 12.009 12.96 17.435h1.342z" transform="translate(-126.723 -2.214)" style="fill:#d90018"/>
        <path data-name="패스 29" d="M63.988 78.845a77.494 77.494 0 0 1-10.929 3.641l.706 1.576 1.675 3.732h13.179l-2.4-4.633z" transform="translate(-34.931 -51.85)" style="fill:#002c78"/>
        <path data-name="패스 30" d="M5.593 30.561a10.571 10.571 0 0 1-1.321-5.581c0-6.469 3.99-15.848 6.327-20.712H4.235L0 38.751h12.5l.261-2.094.332-2.643c-3.644.033-6.181-1.309-7.5-3.452" transform="translate(0 -2.807)" style="fill:#002c78"/>
        <path data-name="패스 31" d="m230.3 75.794.708 7.744h6.807a52.377 52.377 0 0 0-7.826-11.165z" transform="translate(-151.41 -47.594)" style="fill:#002c78"/>
        <path data-name="패스 32" d="M120.242 59.478 119 69.757h12.661l1.149-9.538 1.062-8.8a70.767 70.767 0 0 0-13.086 3.537z" transform="translate(-78.343 -33.813)" style="fill:#002c78"/>
        <path data-name="패스 33" d="m169.28 56.128-6.18 13.557h13.384l3.773-10.19 1.605-4.332a30.294 30.294 0 0 0-10.383-3.855z" transform="translate(-107.374 -33.741)" style="fill:#002c78"/>
    </g>
</svg>
