<svg xmlns="http://www.w3.org/2000/svg" width="140" height="80" viewBox="0 0 140 80">
    <defs>
        <clipPath id="heuob2ls5a">
            <path data-name="사각형 177" style="fill:#818285" d="M0 0h140v80H0z"/>
        </clipPath>
    </defs>
    <g data-name="그룹 333" style="clip-path:url(#heuob2ls5a)">
        <path data-name="패스 114" d="M1.6 128.445A1.572 1.572 0 0 1 0 126.8v-10.4h10.376v2.434H2.968v6.757a.336.336 0 0 0 .091.248.284.284 0 0 0 .194.087h7.123v2.517zm13.632 8.015v-14.538H14.3v14.23h-2.961V116.4H14.3v3h.924v-3h2.986v20.058z" transform="translate(0 -71.014)" style="fill:#818285"/>
        <path data-name="패스 115" d="M63.047 117.463a5.622 5.622 0 0 1 .757 1.426 4.593 4.593 0 0 1 .245 1.529v.152a5.6 5.6 0 0 1-.439 2.058 4.855 4.855 0 0 1-1.113 1.605 5 5 0 0 1-1.719 1.052 6.287 6.287 0 0 1-2.214.372 6.12 6.12 0 0 1-2.2-.383 5.588 5.588 0 0 1-1.761-1.057 4.691 4.691 0 0 1-1.166-1.6A5.2 5.2 0 0 1 53 120.57v-.152a4.915 4.915 0 0 1 .248-1.543 4.614 4.614 0 0 1 .776-1.412h-2.01v-2.49h5.056v-1.541h2.969v1.541h5.033v2.49zm-8.084 16.724a1.625 1.625 0 0 1-1.107-.411 1.552 1.552 0 0 1-.469-1.231v-5.473h2.946v4.288c0 .207.076.308.226.308h13.222v2.52zm6.17-14.809a2.578 2.578 0 0 0-1.484-1.476 2.972 2.972 0 0 0-2.168 0 2.748 2.748 0 0 0-.889.564 2.476 2.476 0 0 0-.6.887 3.046 3.046 0 0 0-.214 1.167 2.947 2.947 0 0 0 .757 2.084 2.621 2.621 0 0 0 2.023.82 2.586 2.586 0 0 0 2.01-.808 3.186 3.186 0 0 0 .56-3.236m8.4-2.377c-.164 0-.248.092-.248.283v11.324H66.3v-12.224a1.972 1.972 0 0 1 .5-1.376 1.77 1.77 0 0 1 1.382-.554h3.068V117z" transform="translate(-31.822 -69.203)" style="fill:#818285"/>
        <path data-name="패스 116" d="M104.952 128.959a1.526 1.526 0 0 1-1.146-.464 1.649 1.649 0 0 1-.452-1.2V116.4h10.379v2.434h-7.413v2.57h7.1v2.496h-7.1v2.21a.362.362 0 0 0 .092.22.246.246 0 0 0 .176.115h7.143v2.517zm10.906 7.192v-16.98a.36.36 0 0 0-.325-.335h-1.47V116.4h3.146a1.521 1.521 0 0 1 1.616 1.589v18.162zm3.522-19.751h2.986v20.058h-2.986z" transform="translate(-63.231 -71.014)" style="fill:#818285"/>
        <path data-name="패스 117" d="M161.537 127.93a1.581 1.581 0 0 1-1.116-.434 1.626 1.626 0 0 1-.459-1.236v-9.86h2.948v8.681a.338.338 0 0 0 .1.269.29.29 0 0 0 .184.088h10.049v2.492zm12.648-11.53h2.97v20.058h-2.97z" transform="translate(-97.864 -71.014)" style="fill:#818285"/>
        <path data-name="패스 118" d="M208.873 131.49h18.6v2.467h-18.6zm17.827-3.93a2.151 2.151 0 0 1-.347.025H226a7.665 7.665 0 0 1-4.84-1.681 8.454 8.454 0 0 1-1.77-1.952 9.337 9.337 0 0 1-1.168-2.559 9.871 9.871 0 0 1-1.178 2.584 8.016 8.016 0 0 1-1.758 1.938 7.8 7.8 0 0 1-2.262 1.234 7.978 7.978 0 0 1-2.64.436h-.43a2.729 2.729 0 0 1-.389-.025v-2.673a6.078 6.078 0 0 0 2.722-.6 5.98 5.98 0 0 0 2.088-1.686 7.853 7.853 0 0 0 1.335-2.582 11.154 11.154 0 0 0 .471-3.325v-.228h4.091a12.22 12.22 0 0 0 .552 3.324 9.382 9.382 0 0 0 1.32 2.7 6.617 6.617 0 0 0 1.945 1.812 4.652 4.652 0 0 0 2.445.666h.268v2.492z" transform="translate(-127.787 -71.053)" style="fill:#818285"/>
        <path data-name="패스 119" d="M271.207 117.463a4.236 4.236 0 0 1 .544 1.091 4.3 4.3 0 0 1 .173 1.274v.2a5.433 5.433 0 0 1-.45 2.04 4.622 4.622 0 0 1-1.117 1.555 4.948 4.948 0 0 1-1.665.992 6.681 6.681 0 0 1-4.269-.012 5.089 5.089 0 0 1-1.66-.99 4.661 4.661 0 0 1-1.081-1.507 4.754 4.754 0 0 1-.421-1.925V120a4.38 4.38 0 0 1 .739-2.543h-1.946v-2.489h5.035v-1.541h2.988v1.541h5.011v2.489zm7.143 16.3a1.6 1.6 0 0 1-1.146.425h-13.425a1.547 1.547 0 0 1-1.64-1.642v-6.426h2.991v1.52h10.724v-1.52h2.946v6.426a1.589 1.589 0 0 1-.451 1.217m-10.039-15.551a2.237 2.237 0 0 0-1.728-.7h-.082a2.127 2.127 0 0 0-1.708.735 2.638 2.638 0 0 0-.623 1.785v.154a2.894 2.894 0 0 0 .194.937 2.393 2.393 0 0 0 .49.783 2.441 2.441 0 0 0 .759.54 2.265 2.265 0 0 0 .974.207 2.168 2.168 0 0 0 1.738-.747 2.788 2.788 0 0 0 .635-1.874 2.566 2.566 0 0 0-.645-1.821m7.542 11.966H265.13v1.183c0 .207.082.308.245.308h10.234a.233.233 0 0 0 .172-.064.31.31 0 0 0 .073-.243zm0-4.26v-4.55c0-.136-.023-.218-.073-.255a.281.281 0 0 0-.172-.051h-2.169v-2.545h2.415v-1.233c0-.191-.083-.283-.245-.283h-2.169v-2.545h3.757a1.537 1.537 0 0 1 1.157.464 1.612 1.612 0 0 1 .44 1.158v9.839z" transform="translate(-159.099 -69.203)" style="fill:#818285"/>
        <path data-name="패스 120" d="M327.873 134.725v-5.216h-15.8v-2.54h6.508v-2.106a5.244 5.244 0 0 1-3.13-1.75 5.01 5.01 0 0 1-1.146-3.181v-.183a5.075 5.075 0 0 1 .153-1.206 2.807 2.807 0 0 1 .524-1.079h-2.235v-2.489h5.877v-1.541h2.987v1.541h5.446v2.489h-1.946a2.8 2.8 0 0 1 .522 1.063 4.945 4.945 0 0 1 .153 1.222v.183a4.85 4.85 0 0 1-1.045 3h.023a4.891 4.891 0 0 1-3.193 1.927v2.106h6.3v-12.509h2.95v20.268zm-5.8-16.476a2.539 2.539 0 0 0-1.917-.707h-.2a2.609 2.609 0 0 0-1.923.707 2.417 2.417 0 0 0-.756 1.683v.074a2.513 2.513 0 0 0 .778 1.9 2.773 2.773 0 0 0 2.005.747 2.533 2.533 0 0 0 2.7-2.621 2.456 2.456 0 0 0-.686-1.785" transform="translate(-190.924 -69.203)" style="fill:#818285"/>
        <path data-name="패스 121" d="M6.563 190.483H5.2l-2.161-3.806-1.29 1.56v2.246H.566v-7.712h1.179v3.874l3.14-3.874H6.3l-2.49 3.018z" transform="translate(-.346 -111.505)" style="fill:#818285"/>
        <path data-name="패스 122" d="M23.395 186.518c0 .613-.011 1.077-.031 1.4a3.217 3.217 0 0 1-.195.9 2.179 2.179 0 0 1-.508.79 2.764 2.764 0 0 1-2.028.827 2.723 2.723 0 0 1-2.016-.818 2.339 2.339 0 0 1-.517-.785 3.287 3.287 0 0 1-.194-.91 19.64 19.64 0 0 1-.038-1.4c0-.471.005-.843.019-1.121a5.368 5.368 0 0 1 .082-.753 2.446 2.446 0 0 1 .22-.645 2.246 2.246 0 0 1 .428-.586 2.751 2.751 0 0 1 2.018-.815 2.8 2.8 0 0 1 2.031.815 2.389 2.389 0 0 1 .507.793 3.331 3.331 0 0 1 .191.907c.02.322.031.79.031 1.4m-1.168.009a10.083 10.083 0 0 0-.087-1.619 1.546 1.546 0 0 0-.366-.77 1.4 1.4 0 0 0-.505-.344 1.582 1.582 0 0 0-1.271 0 1.369 1.369 0 0 0-.508.344 1.558 1.558 0 0 0-.365.779 10.142 10.142 0 0 0-.087 1.61c0 .4.005.733.019.976a4.354 4.354 0 0 0 .071.638 1.735 1.735 0 0 0 .126.425 1.437 1.437 0 0 0 .237.344 1.6 1.6 0 0 0 .512.356 1.777 1.777 0 0 0 .633.122 1.482 1.482 0 0 0 1.139-.478 1.376 1.376 0 0 0 .288-.466 2.609 2.609 0 0 0 .128-.718c.028-.3.037-.7.037-1.2" transform="translate(-10.932 -111.405)" style="fill:#818285"/>
        <path data-name="패스 123" d="M41.844 190.483h-1.36l-1.614-3.248h-1.452v3.248h-1.182v-7.713h2.988a2.657 2.657 0 0 1 1.253.285 2.014 2.014 0 0 1 .837.8 2.282 2.282 0 0 1 .3 1.164 2.041 2.041 0 0 1-.428 1.325 2.127 2.127 0 0 1-1.1.726zm-1.4-5.446a1.159 1.159 0 0 0-.355-.889 1.351 1.351 0 0 0-.948-.324h-1.72v2.4h1.72a1.38 1.38 0 0 0 .946-.319 1.11 1.11 0 0 0 .358-.87" transform="translate(-22.169 -111.505)" style="fill:#818285"/>
        <path data-name="패스 124" d="M59.079 190.483h-4.925v-7.712h4.925v1.054h-3.745v2.242h3.194v1.05h-3.194v2.306h3.745z" transform="translate(-33.131 -111.505)" style="fill:#818285"/>
        <path data-name="패스 125" d="M74.866 190.483h-1.241l-.528-1.557h-3.033l-.526 1.557H68.3l2.819-7.712h.938zm-2.094-2.552-1.163-3.415-1.194 3.415z" transform="translate(-41.782 -111.506)" style="fill:#818285"/>
        <path data-name="패스 126" d="M97.787 183.824h-2.12v6.658H94.5v-6.658h-2.11v-1.054h5.4z" transform="translate(-56.524 -111.505)" style="fill:#818285"/>
        <path data-name="패스 127" d="M114.315 190.483h-4.926v-7.712h4.926v1.054h-3.745v2.242h3.194v1.05h-3.194v2.306h3.745z" transform="translate(-66.924 -111.505)" style="fill:#818285"/>
        <path data-name="패스 128" d="M131.656 190.483h-1.072l-3.54-5.427v5.427h-1.179v-7.712h1.079l3.546 5.416v-5.416h1.166z" transform="translate(-77.004 -111.505)" style="fill:#818285"/>
        <path data-name="패스 129" d="M151.444 190.483h-1.075l-3.539-5.427v5.427h-1.18v-7.712h1.08l3.544 5.416v-5.416h1.171z" transform="translate(-89.107 -111.505)" style="fill:#818285"/>
        <path data-name="사각형 174" transform="translate(64.222 71.265)" style="fill:#818285" d="M0 0h1.182v7.712H0z"/>
        <path data-name="패스 130" d="M177.07 188.18a2.146 2.146 0 0 1-.2.935 2 2 0 0 1-.576.728 2.668 2.668 0 0 1-.879.455 3.889 3.889 0 0 1-1.106.145 4.46 4.46 0 0 1-1.531-.234 3.241 3.241 0 0 1-1.2-.79l.783-.774a2.257 2.257 0 0 0 1.221.673 3.862 3.862 0 0 0 .743.071 1.941 1.941 0 0 0 1.165-.312 1.013 1.013 0 0 0 .42-.87 1.026 1.026 0 0 0-.3-.8.937.937 0 0 0-.32-.2 2.448 2.448 0 0 0-.516-.124l-.908-.124a2.637 2.637 0 0 1-1.46-.615 1.921 1.921 0 0 1-.557-1.472 2.233 2.233 0 0 1 .311-1.183 2.032 2.032 0 0 1 .892-.8 3.078 3.078 0 0 1 1.363-.282 3.871 3.871 0 0 1 1.339.211 3.027 3.027 0 0 1 1.048.668l-.75.739a1.9 1.9 0 0 0-.492-.349 2.183 2.183 0 0 0-.549-.188 3.129 3.129 0 0 0-.626-.055 1.656 1.656 0 0 0-.754.156 1.1 1.1 0 0 0-.478.418 1.163 1.163 0 0 0-.165.622.9.9 0 0 0 .29.717 1.418 1.418 0 0 0 .37.216 1.961 1.961 0 0 0 .49.138l.873.129a4.025 4.025 0 0 1 .86.214 1.92 1.92 0 0 1 1.2 1.938" transform="translate(-104.973 -111.405)" style="fill:#818285"/>
        <path data-name="패스 131" d="M200.069 190.483h-1.241l-.526-1.557h-3.035l-.528 1.557H193.5l2.815-7.712h.938zm-2.1-2.552-1.161-3.415-1.2 3.415z" transform="translate(-118.382 -111.506)" style="fill:#818285"/>
        <path data-name="패스 132" d="M216.668 188.18a2.2 2.2 0 0 1-.2.935 2.01 2.01 0 0 1-.579.728 2.652 2.652 0 0 1-.879.455 3.885 3.885 0 0 1-1.106.145 4.471 4.471 0 0 1-1.532-.234 3.182 3.182 0 0 1-1.191-.79l.779-.774a2.541 2.541 0 0 0 .562.439 2.505 2.505 0 0 0 .659.234 3.849 3.849 0 0 0 .741.071 1.942 1.942 0 0 0 1.166-.312 1.025 1.025 0 0 0 .42-.87 1.037 1.037 0 0 0-.3-.8.943.943 0 0 0-.32-.2 2.431 2.431 0 0 0-.519-.124l-.906-.124a2.636 2.636 0 0 1-1.46-.615 1.919 1.919 0 0 1-.558-1.472 2.215 2.215 0 0 1 .311-1.183 2.044 2.044 0 0 1 .895-.8 3.048 3.048 0 0 1 1.362-.282 3.905 3.905 0 0 1 1.34.211 2.993 2.993 0 0 1 1.044.668l-.749.739a1.9 1.9 0 0 0-.495-.349 2.113 2.113 0 0 0-.546-.188 3.121 3.121 0 0 0-.625-.055 1.613 1.613 0 0 0-.75.156 1.079 1.079 0 0 0-.484.418 1.174 1.174 0 0 0-.165.622.908.908 0 0 0 .291.717 1.393 1.393 0 0 0 .37.216 1.932 1.932 0 0 0 .49.138l.873.129a3.958 3.958 0 0 1 .859.214 1.923 1.923 0 0 1 1.2 1.938" transform="translate(-129.2 -111.405)" style="fill:#818285"/>
        <path data-name="패스 133" d="M232.774 188.18a2.131 2.131 0 0 1-.2.935 1.99 1.99 0 0 1-.577.728 2.709 2.709 0 0 1-.877.455 3.892 3.892 0 0 1-1.1.145 4.473 4.473 0 0 1-1.535-.234 3.2 3.2 0 0 1-1.193-.79l.782-.774a2.492 2.492 0 0 0 .565.439 2.457 2.457 0 0 0 .654.234 3.847 3.847 0 0 0 .743.071 1.926 1.926 0 0 0 1.163-.312 1.147 1.147 0 0 0 .117-1.667.919.919 0 0 0-.32-.2 2.49 2.49 0 0 0-.517-.124l-.906-.124a2.621 2.621 0 0 1-1.458-.615 1.921 1.921 0 0 1-.563-1.472 2.238 2.238 0 0 1 .314-1.183 2.064 2.064 0 0 1 .889-.8 3.086 3.086 0 0 1 1.367-.282 3.873 3.873 0 0 1 1.338.211 3.045 3.045 0 0 1 1.05.668l-.753.739a1.939 1.939 0 0 0-.493-.349 2.139 2.139 0 0 0-.546-.188 3.159 3.159 0 0 0-.627-.055 1.643 1.643 0 0 0-.752.156 1.106 1.106 0 0 0-.481.418 1.157 1.157 0 0 0-.167.622.919.919 0 0 0 .29.717 1.4 1.4 0 0 0 .375.216 1.927 1.927 0 0 0 .485.138l.876.129a4.05 4.05 0 0 1 .861.214 1.889 1.889 0 0 1 .569.358 1.986 1.986 0 0 1 .632 1.58" transform="translate(-139.052 -111.405)" style="fill:#818285"/>
        <path data-name="패스 134" d="M249.956 186.518c0 .613-.012 1.077-.035 1.4a3.1 3.1 0 0 1-.195.9 2.21 2.21 0 0 1-.506.79 2.773 2.773 0 0 1-2.027.827 2.727 2.727 0 0 1-2.019-.818 2.36 2.36 0 0 1-.518-.785 3.511 3.511 0 0 1-.194-.91 19.881 19.881 0 0 1-.036-1.4c0-.471 0-.843.018-1.121a6.159 6.159 0 0 1 .083-.753 2.612 2.612 0 0 1 .219-.645 2.359 2.359 0 0 1 .428-.586 2.922 2.922 0 0 1 4.049 0 2.281 2.281 0 0 1 .508.793 3.125 3.125 0 0 1 .19.907c.023.322.035.79.035 1.4m-1.169.009a10.591 10.591 0 0 0-.085-1.619 1.489 1.489 0 0 0-.37-.77 1.363 1.363 0 0 0-.5-.344 1.586 1.586 0 0 0-1.273 0 1.435 1.435 0 0 0-.508.344 1.539 1.539 0 0 0-.363.779 10.029 10.029 0 0 0-.089 1.61c0 .4.008.733.021.976a4.794 4.794 0 0 0 .068.638 1.807 1.807 0 0 0 .129.425 1.512 1.512 0 0 0 .234.344 1.624 1.624 0 0 0 .513.356 1.791 1.791 0 0 0 .634.122 1.479 1.479 0 0 0 1.138-.478 1.3 1.3 0 0 0 .29-.466 2.769 2.769 0 0 0 .13-.718q.035-.452.035-1.2" transform="translate(-149.538 -111.405)" style="fill:#818285"/>
        <path data-name="패스 135" d="M267.011 189.521a3.861 3.861 0 0 1-.6.5 2.624 2.624 0 0 1-.7.316 3.119 3.119 0 0 1-.852.106 2.964 2.964 0 0 1-.752-.092 2.786 2.786 0 0 1-1.262-.726 2.264 2.264 0 0 1-.517-.786 3.384 3.384 0 0 1-.2-.91 18.187 18.187 0 0 1-.036-1.4c0-.471 0-.843.019-1.121a5.475 5.475 0 0 1 .084-.753 2.43 2.43 0 0 1 .217-.645 2.255 2.255 0 0 1 .43-.586 2.863 2.863 0 0 1 .91-.609 3.005 3.005 0 0 1 1.1-.206 2.822 2.822 0 0 1 1.189.225 3.313 3.313 0 0 1 .96.691l-.775.79a2.918 2.918 0 0 0-.638-.5 1.672 1.672 0 0 0-.729-.152 1.606 1.606 0 0 0-.637.129 1.277 1.277 0 0 0-.5.34 1.425 1.425 0 0 0-.233.328 1.9 1.9 0 0 0-.131.441 4.751 4.751 0 0 0-.073.638c-.012.253-.018.574-.018.99a10.52 10.52 0 0 0 .087 1.619 1.565 1.565 0 0 0 .368.776 1.483 1.483 0 0 0 .5.345 1.688 1.688 0 0 0 .637.122 1.519 1.519 0 0 0 .729-.159 2.725 2.725 0 0 0 .638-.494z" transform="translate(-160.349 -111.405)" style="fill:#818285"/>
        <path data-name="사각형 175" transform="translate(108.106 71.265)" style="fill:#818285" d="M0 0h1.18v7.712H0z"/>
        <path data-name="패스 136" d="M290.6 190.483h-1.243l-.526-1.557H285.8l-.529 1.557h-1.24l2.814-7.712h.936zm-2.1-2.552-1.164-3.415-1.2 3.415z" transform="translate(-173.77 -111.506)" style="fill:#818285"/>
        <path data-name="패스 137" d="M307.119 183.824H305v6.658h-1.17v-6.658h-2.112v-1.054h5.4z" transform="translate(-184.589 -111.505)" style="fill:#818285"/>
        <path data-name="사각형 176" transform="translate(123.73 71.265)" style="fill:#818285" d="M0 0h1.183v7.712H0z"/>
        <path data-name="패스 138" d="M331.439 186.518c0 .613-.01 1.077-.035 1.4a3.1 3.1 0 0 1-.193.9 2.19 2.19 0 0 1-.5.79 2.776 2.776 0 0 1-2.031.827 2.727 2.727 0 0 1-2.017-.818 2.369 2.369 0 0 1-.517-.785 3.209 3.209 0 0 1-.195-.91 18.505 18.505 0 0 1-.038-1.4c0-.471.005-.843.021-1.121a5.255 5.255 0 0 1 .082-.753 2.65 2.65 0 0 1 .217-.645 2.392 2.392 0 0 1 .43-.586 2.754 2.754 0 0 1 2.017-.815 2.786 2.786 0 0 1 2.031.815 2.34 2.34 0 0 1 .51.793 3.218 3.218 0 0 1 .187.907c.025.322.035.79.035 1.4m-1.167.009a9.961 9.961 0 0 0-.087-1.619 1.545 1.545 0 0 0-.368-.77 1.37 1.37 0 0 0-.505-.344 1.584 1.584 0 0 0-1.272 0 1.44 1.44 0 0 0-.509.344 1.571 1.571 0 0 0-.365.779 10.235 10.235 0 0 0-.086 1.61c0 .4.007.733.017.976a4.742 4.742 0 0 0 .072.638 1.888 1.888 0 0 0 .125.425 1.407 1.407 0 0 0 .236.344 1.648 1.648 0 0 0 .515.356 1.778 1.778 0 0 0 .63.122 1.489 1.489 0 0 0 1.142-.478 1.425 1.425 0 0 0 .287-.466 2.786 2.786 0 0 0 .13-.718c.024-.3.037-.7.037-1.2" transform="translate(-199.389 -111.405)" style="fill:#818285"/>
        <path data-name="패스 139" d="M350.078 190.483h-1.073l-3.538-5.427v5.427h-1.182v-7.712h1.079l3.545 5.416v-5.416h1.169z" transform="translate(-210.632 -111.505)" style="fill:#818285"/>
        <path data-name="패스 140" d="m115.617 11.406-.233 1.945-.53 4.407a81.394 81.394 0 0 1 13.212-3.925l.141-1.178.151-1.249 8.844.365L138.559.8H95.648l-5.509 8.78-1.2 1.932a32.046 32.046 0 0 0-2.181 4.439l-.311-.105c.467-2.141.882-4.387 1.09-6.059L88.627.8H84.28c-2.108 4.766-5.135 12.68-5.135 18.061a10.354 10.354 0 0 0 1.055 4.954 7.211 7.211 0 0 0 5.223 3.291l.059-.468.131-1.024a38.271 38.271 0 0 0 .258-4.022v-1.048l.368-.05a23.446 23.446 0 0 0 1.712 5.119l.368.822.391.873a54.141 54.141 0 0 0 11.175-2.954l-1.549-3-1.493-2.9 10.363-13.58-.852 6.895z" transform="translate(-48.42 -.489)" style="fill:#818285"/>
        <path data-name="패스 141" d="M250.954 0h-14.405l-2.721 5.986-3.137 6.9a22.824 22.824 0 0 1 10.328 3.369 58.27 58.27 0 0 0 .686-2.028 31.069 31.069 0 0 0 .823-3.25h.414a24.893 24.893 0 0 0-.1 2.768c0 .992 0 1.932.053 2.51l.057.634.054.631c6.677 4.7 10.669 12.112 13.044 17.588h1.35z" transform="translate(-141.135)" style="fill:#818285"/>
        <path data-name="패스 142" d="M118.177 66.86a77.637 77.637 0 0 1-11 3.675l.71 1.591 1.688 3.765h13.263l-2.413-4.676z" transform="translate(-65.57 -40.79)" style="fill:#818285"/>
        <path data-name="패스 143" d="M65.8 27.328a10.679 10.679 0 0 1-1.332-5.634C64.471 15.17 68.49 5.708 70.84.8h-6.4l-4.267 34.79h12.585l.263-2.116.334-2.664c-3.667.032-6.221-1.323-7.552-3.482" transform="translate(-36.813 -.489)" style="fill:#818285"/>
        <path data-name="패스 144" d="m264.217 64.583.711 7.811h6.853a52.813 52.813 0 0 0-7.881-11.265z" transform="translate(-161.454 -37.294)" style="fill:#818285"/>
        <path data-name="패스 145" d="m166.838 50.7-1.252 10.37h12.746l1.157-9.621 1.068-8.883a71.02 71.02 0 0 0-13.168 3.571z" transform="translate(-101.305 -25.967)" style="fill:#818285"/>
        <path data-name="패스 146" d="m210.875 47.332-6.219 13.677h13.47l3.8-10.28 1.613-4.371a30.429 30.429 0 0 0-10.45-3.891z" transform="translate(-125.207 -25.909)" style="fill:#818285"/>
    </g>
</svg>
